<?xml version="1.0" encoding="UTF-8"?>

<svg xmlns="http://www.w3.org/2000/svg" width="0" height="0" style="position:absolute" aria-hidden="true">
  <defs>
    
    <symbol id="peyi-logo" viewBox="0 0 200 200">
      <path fill="currentColor" d="M70 30 h55 a45 45 0 0 1 45 45 v0 a45 45 0 0 1 -45 45 h-35 v40 a12 12 0 0 1 -12 12 h-12 a12 12 0 0 1 -12 -12 v-118 a12 12 0 0 1 12 -12 z M90 62 v34 h30 a17 17 0 0 0 17 -17 v0 a17 17 0 0 0 -17 -17 z"></path>
    </symbol>

    
    <symbol id="icn-home" viewBox="0 0 24 24"><path fill="none" stroke="currentColor" stroke-width="2" stroke-linecap="round" stroke-linejoin="round" d="M3 11 12 4l9 7v9a1 1 0 0 1-1 1h-5v-6h-6v6H4a1 1 0 0 1-1-1Z"></path></symbol>
    <symbol id="icn-car" viewBox="0 0 24 24"><path fill="none" stroke="currentColor" stroke-width="2" stroke-linecap="round" stroke-linejoin="round" d="M3 16V12l2-5a2 2 0 0 1 2-1h10a2 2 0 0 1 2 1l2 5v4m-18 0h18m-15 0v2a1 1 0 0 0 1 1h1a1 1 0 0 0 1-1v-2m9 0v2a1 1 0 0 0 1 1h1a1 1 0 0 0 1-1v-2"></path><circle cx="7.5" cy="16" r="1.5" fill="currentColor"></circle><circle cx="16.5" cy="16" r="1.5" fill="currentColor"></circle></symbol>
    <symbol id="icn-job" viewBox="0 0 24 24"><path fill="none" stroke="currentColor" stroke-width="2" stroke-linecap="round" stroke-linejoin="round" d="M3 7h18v13H3zM8 7V5a2 2 0 0 1 2-2h4a2 2 0 0 1 2 2v2M3 13h18"></path></symbol>
    <symbol id="icn-event" viewBox="0 0 24 24"><path fill="none" stroke="currentColor" stroke-width="2" stroke-linecap="round" stroke-linejoin="round" d="M4 6h16v14H4zM4 10h16M8 3v4M16 3v4"></path></symbol>
    <symbol id="icn-food" viewBox="0 0 24 24"><path fill="none" stroke="currentColor" stroke-width="2" stroke-linecap="round" stroke-linejoin="round" d="M4 11h16v2a7 7 0 0 1-7 7h-2a7 7 0 0 1-7-7v-2ZM7 8c0-2 2-2 2-4M12 8c0-2 2-2 2-4M17 8c0-2 2-2 2-4M2 20h20"></path></symbol>
    <symbol id="icn-service" viewBox="0 0 24 24"><path fill="none" stroke="currentColor" stroke-width="2" stroke-linecap="round" stroke-linejoin="round" d="M14.7 6.3a4 4 0 0 0-5.4 5.4L3 18l3 3 6.3-6.3a4 4 0 0 0 5.4-5.4l-2.8 2.8-2.2-2.2 2.8-2.6Z"></path></symbol>

    
    <symbol id="icn-search" viewBox="0 0 24 24"><path fill="none" stroke="currentColor" stroke-width="2" stroke-linecap="round" stroke-linejoin="round" d="M11 19a8 8 0 1 1 0-16 8 8 0 0 1 0 16Zm10 2-4.5-4.5"></path></symbol>
    <symbol id="icn-pin" viewBox="0 0 24 24"><path fill="none" stroke="currentColor" stroke-width="2" stroke-linecap="round" stroke-linejoin="round" d="M12 22s-7-7.58-7-13a7 7 0 1 1 14 0c0 5.42-7 13-7 13Z"></path><circle cx="12" cy="9" r="2.5" fill="none" stroke="currentColor" stroke-width="2"></circle></symbol>
    <symbol id="icn-filter" viewBox="0 0 24 24"><path fill="none" stroke="currentColor" stroke-width="2" stroke-linecap="round" stroke-linejoin="round" d="M3 5h18l-7 9v6l-4-2v-4L3 5Z"></path></symbol>
    <symbol id="icn-sliders" viewBox="0 0 24 24"><path fill="none" stroke="currentColor" stroke-width="2" stroke-linecap="round" d="M4 7h10M18 7h2M4 17h2M10 17h10M4 12h6M14 12h6"></path><circle cx="16" cy="7" r="2" fill="none" stroke="currentColor" stroke-width="2"></circle><circle cx="8" cy="17" r="2" fill="none" stroke="currentColor" stroke-width="2"></circle><circle cx="12" cy="12" r="2" fill="none" stroke="currentColor" stroke-width="2"></circle></symbol>
    <symbol id="icn-sort" viewBox="0 0 24 24"><path fill="none" stroke="currentColor" stroke-width="2" stroke-linecap="round" stroke-linejoin="round" d="M7 4v16M3 16l4 4 4-4M17 20V4M13 8l4-4 4 4"></path></symbol>
    <symbol id="icn-mic" viewBox="0 0 24 24"><rect x="9" y="3" width="6" height="12" rx="3" fill="none" stroke="currentColor" stroke-width="2"></rect><path fill="none" stroke="currentColor" stroke-width="2" stroke-linecap="round" d="M5 11a7 7 0 0 0 14 0M12 18v3M9 21h6"></path></symbol>
    <symbol id="icn-camera" viewBox="0 0 24 24"><path fill="none" stroke="currentColor" stroke-width="2" stroke-linejoin="round" d="M3 8h4l2-3h6l2 3h4v12H3z"></path><circle cx="12" cy="13" r="4" fill="none" stroke="currentColor" stroke-width="2"></circle></symbol>
    <symbol id="icn-grid" viewBox="0 0 24 24"><rect x="3" y="3" width="7" height="7" rx="1.5" fill="none" stroke="currentColor" stroke-width="2"></rect><rect x="14" y="3" width="7" height="7" rx="1.5" fill="none" stroke="currentColor" stroke-width="2"></rect><rect x="3" y="14" width="7" height="7" rx="1.5" fill="none" stroke="currentColor" stroke-width="2"></rect><rect x="14" y="14" width="7" height="7" rx="1.5" fill="none" stroke="currentColor" stroke-width="2"></rect></symbol>
    <symbol id="icn-list" viewBox="0 0 24 24"><path fill="none" stroke="currentColor" stroke-width="2" stroke-linecap="round" d="M8 6h13M8 12h13M8 18h13"></path><circle cx="4" cy="6" r="1.5" fill="currentColor"></circle><circle cx="4" cy="12" r="1.5" fill="currentColor"></circle><circle cx="4" cy="18" r="1.5" fill="currentColor"></circle></symbol>
    <symbol id="icn-map" viewBox="0 0 24 24"><path fill="none" stroke="currentColor" stroke-width="2" stroke-linejoin="round" d="M9 4 3 6v14l6-2 6 2 6-2V4l-6 2z"></path><path fill="none" stroke="currentColor" stroke-width="2" d="M9 4v14M15 6v14"></path></symbol>
    <symbol id="icn-recent" viewBox="0 0 24 24"><path fill="none" stroke="currentColor" stroke-width="2" stroke-linecap="round" stroke-linejoin="round" d="M3 12a9 9 0 1 0 3-6.7L3 8M3 3v5h5"></path><path fill="none" stroke="currentColor" stroke-width="2" stroke-linecap="round" d="M12 8v5l3 2"></path></symbol>
    <symbol id="icn-trending" viewBox="0 0 24 24"><path fill="none" stroke="currentColor" stroke-width="2" stroke-linecap="round" stroke-linejoin="round" d="M3 17 9 11l4 4 8-8M14 5h7v7"></path></symbol>
    <symbol id="icn-flag-star" viewBox="0 0 24 24"><path fill="currentColor" d="m12 2 2.6 7.3 7.7.3-6.1 4.7 2.1 7.4L12 17.3 5.7 21.7l2.1-7.4L1.7 9.6l7.7-.3z"></path></symbol>

    
    <symbol id="icn-heart" viewBox="0 0 24 24"><path fill="none" stroke="currentColor" stroke-width="2" stroke-linecap="round" stroke-linejoin="round" d="M12 21s-7-4.5-9.5-9.2C.9 8.5 2.6 4.5 6.5 4.5c2 0 3.5 1 4.5 2.5 1-1.5 2.5-2.5 4.5-2.5 3.9 0 5.6 4 4 7.3C19 16.5 12 21 12 21Z"></path></symbol>
    <symbol id="icn-tag" viewBox="0 0 24 24"><path fill="none" stroke="currentColor" stroke-width="2" stroke-linecap="round" stroke-linejoin="round" d="M3 12V4h8l10 10-8 8L3 12Z"></path><circle cx="8" cy="8" r="1.5" fill="currentColor"></circle></symbol>
    <symbol id="icn-chat" viewBox="0 0 24 24"><path fill="none" stroke="currentColor" stroke-width="2" stroke-linecap="round" stroke-linejoin="round" d="M4 5h16v12H8l-4 4V5Z"></path></symbol>
    <symbol id="icn-user" viewBox="0 0 24 24"><circle cx="12" cy="8" r="4" fill="none" stroke="currentColor" stroke-width="2"></circle><path fill="none" stroke="currentColor" stroke-width="2" stroke-linecap="round" d="M4 21a8 8 0 0 1 16 0"></path></symbol>
    <symbol id="icn-bell" viewBox="0 0 24 24"><path fill="none" stroke="currentColor" stroke-width="2" stroke-linecap="round" stroke-linejoin="round" d="M6 16V11a6 6 0 1 1 12 0v5l2 2H4l2-2ZM10 20a2 2 0 0 0 4 0"></path></symbol>
    <symbol id="icn-star" viewBox="0 0 24 24"><path fill="currentColor" d="m12 3 2.9 6 6.5.9-4.7 4.6 1.1 6.5L12 18l-5.8 3 1.1-6.5L2.6 9.9 9.1 9Z"></path></symbol>
    <symbol id="icn-plus" viewBox="0 0 24 24"><path fill="none" stroke="currentColor" stroke-width="2.5" stroke-linecap="round" d="M12 5v14M5 12h14"></path></symbol>
    <symbol id="icn-check" viewBox="0 0 24 24"><path fill="none" stroke="currentColor" stroke-width="2.5" stroke-linecap="round" stroke-linejoin="round" d="M4 12l5 5L20 6"></path></symbol>
    <symbol id="icn-close" viewBox="0 0 24 24"><path fill="none" stroke="currentColor" stroke-width="2.5" stroke-linecap="round" d="M6 6l12 12M18 6 6 18"></path></symbol>
    <symbol id="icn-arrow-right" viewBox="0 0 24 24"><path fill="none" stroke="currentColor" stroke-width="2.5" stroke-linecap="round" stroke-linejoin="round" d="M5 12h14M13 6l6 6-6 6"></path></symbol>
    <symbol id="icn-clock" viewBox="0 0 24 24"><circle cx="12" cy="12" r="9" fill="none" stroke="currentColor" stroke-width="2"></circle><path fill="none" stroke="currentColor" stroke-width="2" stroke-linecap="round" d="M12 7v5l3 2"></path></symbol>
    <symbol id="icn-euro" viewBox="0 0 24 24"><path fill="none" stroke="currentColor" stroke-width="2" stroke-linecap="round" d="M19 6a8 8 0 1 0 0 12M4 10h10M4 14h10"></path></symbol>
  </defs>
</svg>